@startuml DOM_elements

class "ClassRegister" as register { 
    +id : String; // ідентифікатор регістру
    +ln : String; // Заголовок для логування роботи коду
    +header : Object; // {ua,en,ru}  Заголовок поля вводу
    +type :  String; // Тип регістру для рендерингу в myElementsRender
    +value : String|Number = props.value | 0; // Поточне значення
    +comment : Object; // {ua,en,ru} Додатковий опис
    +editable : Boolean = true // Дозвіл на редагування значення регістру
	+attributes: Object // список атрибутів для елемента {name:value, }
	+classes: Array || String // список класів 
	
	---- methods ----
    +setValue(val): return val; // встановлює this.value
    +getValue(): return this.value; // встановлює this.value
}




class ClassGeneralElement {
    ** constructor **
	+container : nodeDOM; // Батьківський контейнер для розміщення компоненту
	+reg : Object; // Типовий регістр ClassRegister та його нащадки
	+afterChange {async function} = async () {0} :  // зовнішня функція що викликається після зміни значення
	---
    +this.id = reg.id: String; // ідентифікатор регістру 
    +this.prefix = reg.id | id+timeStamp: String; // префікс до id елементу 
	+this.type = reg.type :  String; // Тип регістру
	+this.editable = reg.editable : Boolean // Дозвіл на редагування значення регістру
	---
	this.setClassList(el, classList) - додає до елементу класи
	this.setAtributes(el, list) - додає до елементу атрибути 
	---
	модуль: controllers/elementsRender/views/myElR_ClassGeneralElement.js
}



ClassGeneralElement <|-- ClassCreateElement
 
class ClassCreateElement {
    ** constructor **
    +tag : String; // імя HTML тегу для створення node DOM = this.field
	+value : String|Number // Поточне значення
	+afterChange() : async Function // Запускається після зміни значення поля
	
	---
	
	+ln : String  = "ClassCreateElement()::"
    #elId : String; // element Id ідентифікатор для батьківського елементу = prefix+"__"+id
    #beforeValue : String|Number // попереднє значення
    #div : node DOM   // батьківський контейнер для створення елементу class="col form-group" id=elId
    #field : node DOM  // контейнер для поля вводу class="col form-group" id = elId+"_field"
    #label : node DOM   // контейнер для створення елементу   class="col form-group" for=field.id
    ---
    +onchange(event) : // обробник зміни значення елементу; onchange.bind(this)
    +setValue(val) : return val; // встановлює this.value
    +getValue() : return this.value; // встановлює this.value
    +getFieldValue() : return this.field.value
	+getBeforeValue() : return before value of field
	+hasChanged() : return true if before != field.value
	+getFieldValue() : return field.value
    ---
    розташування : "/controllers/tasksController/views/"
    модуль: myElR_ClassCreateElement.js 
    
}

class ClassButton {
	myElementsRender["button"]
	---- ** constructor props ** ----
	+container: DOMnode //
	+action: "link" | undefined //тег за яким створюється кнопка, "link"=<a> всі інші значення =<button>  
	+reg.classes:"btn btn-success"  // 
	+reg.attributes: { href: ...} //
	+reg.id: String
	+reg.header:Object // type {ua: ..,en,ru} напис на кнопці
	+reg.comment: Object // type {ua: ..,en,ru} спливаюча підказка
	+reg.type="button" // тип як задано в myElementsRender
	+onclick: async Function // обробник натискання
	---- internal ----
	this.tag =( props.action == "link" ? "a":"button") : String // тег за яким створюється кнопка
	this.el : DOM node // власне кнопка 
	
	
}
ClassGeneralElement <|-- ClassButton

class ClassButtonGroup {
new myElementsRender["buttonGroup"]
---- ** constructor props ** ----
+ln 
+container 
+reg: ClassRegister
+types : myElementsRender // список об'єктів рендера
+reg.regs: Object of ClassButton // опис кнопок
---- internal ----
this.btnGroup // власне группа
this.btnGroup.classList = props.classes | "col btn-group-vertical"
this.children : Object of ClassButton // всі кнопки
 

}
ClassGeneralElement <|-- ClassButtonGroup

class ClassElementNumber {
    +ln : String ="ClassElementNumber::"
    +tag : ="input" // тег input
    +field.attribute : "type" ="number"
    +field.attribute : "min" ="reg.min"
    +field.attribute : "max" ="reg.max"
    +setValue(val) : //додана перевірка на min та max
    ---
    модуль : "tasksR_elem_number.js" 
}
ClassCreateElement <|-- ClassElementNumber

class ClassElementSelectGeneral {
    +tag : ="select" // тег select
    +ln : String ="ClassElementSelectGeneral::"
    +regs:Object = список елементів вибору
    ---
	getOption(val) : функція пост обробки val
	setOption(val) : функція перед обробки val
	---
    модуль : "myElR_selectGeneral.js" 
}
ClassCreateElement <|-- ClassElementSelectGeneral

class ClassElementSelectRegsList {
    
    +ln : String ="ClassElementSelectRegsList::"
	---
	---
    +children : instanceof ClassRegsList // список регістрів-дітей 
    +setValue(val) : //додано children.remove та children.render
    ---
    модуль : "myElR_select.js" 
}
ClassElementSelectGeneral <|-- ClassElementSelectRegsList


class ClassRegsList {   
    ** constructor **
    +container : DOM element
    +regs  : Object // список регістрів-дітей для створення DOM nodes
    +prefix="_undefined": String; // префікс до id елементу 
	---
	+types=myElementsRender : Object // список типів конструкторів класів  з яких створюються елементи 
	+ln : String  = "ClassRegsList(${props.prefix})::"
    +children :  Object // список регістрів-дітей
    +remove() : // Видаляє всіх зі списку children
    +render(regs) : // Створює всіх дітей в списку regs
    +getValues() : //Проходить по списку всіх дітей та отримує значення {'tT':500,'o':15,..}
    +findRegister(id): Object | undefined // шукає серед усіх нащадків регістр з вказаним id
    +setRegister(id, value) : Встановлює для регістра id вказане value 
    ---
    розташування : "controllers/elementsRender/views/"
    модуль: myElR_regsList.js
    
}

@enduml